<svg version="1.1" xmlns="http://www.w3.org/2000/svg" xmlns:xlink="http://www.w3.org/1999/xlink" width="1280.000000pt" height="749.000000pt" viewBox="0,0,256,149.79688"><g fill-opacity="0.56863" fill="#588157" fill-rule="nonzero" stroke="none" stroke-width="1" stroke-linecap="butt" stroke-linejoin="miter" stroke-miterlimit="10" stroke-dasharray="" stroke-dashoffset="0" font-family="none" font-weight="none" font-size="none" text-anchor="none" style="mix-blend-mode: normal"><g transform="translate(-0.05,-0.01027) scale(0.2,0.2)"><g transform="translate(0,749) scale(0.1,-0.1)"><path d="M4895,7310c-145,-38 -267,-110 -362,-214c-107,-117 -163,-233 -189,-391c-14,-82 -15,-113 -6,-189c7,-50 19,-113 28,-139l16,-48l-393,-974c-217,-536 -397,-975 -401,-975c-3,0 -38,18 -77,41c-166,96 -405,187 -613,233c-136,30 -325,56 -413,56h-64l-3,-47l-3,-48l-140,-6c-951,-44 -1776,-698 -2034,-1615c-64,-228 -76,-322 -76,-609c0,-228 3,-275 23,-380c137,-728 575,-1308 1227,-1626c309,-150 614,-219 974,-219c672,0 1300,299 1722,820l72,89l36,-25c20,-13 39,-24 44,-24c17,0 134,194 208,345c113,232 184,463 221,720c19,138 16,495 -5,635c-62,392 -210,748 -445,1064c-82,110 -270,308 -369,389c-35,28 -63,55 -63,61c0,11 118,318 125,324c2,2 552,-474 1223,-1058l1220,-1061l-19,-45c-29,-65 -49,-168 -49,-257c0,-274 170,-534 420,-638c88,-37 223,-63 297,-57c51,5 53,4 62,-26c27,-84 131,-435 131,-440c0,-3 -34,-6 -75,-6h-75v-125v-125h315h315v125v125h-110c-60,0 -110,3 -110,8c0,4 -38,127 -84,274l-83,268l41,24c159,93 279,257 322,442c17,70 19,74 48,78c47,7 377,28 380,24c2,-1 15,-64 30,-138c159,-801 745,-1451 1528,-1694c241,-75 440,-101 723,-93c219,6 347,24 539,78c785,221 1403,881 1571,1679c16,73 44,268 45,303c0,14 9,17 50,17h50v159c0,356 -76,682 -234,1006c-259,530 -694,930 -1246,1148c-245,97 -492,146 -771,154c-363,11 -686,-51 -1010,-192c-56,-25 -103,-44 -104,-43c-1,2 -144,249 -318,550l-316,547l117,265l117,265l335,152c285,130 341,159 377,195c85,87 80,218 -11,302c-24,23 -61,45 -83,51c-50,13 -802,31 -1307,31c-371,0 -404,-1 -436,-19c-52,-27 -80,-74 -80,-134c0,-72 27,-109 113,-157c112,-63 533,-274 680,-341c72,-33 136,-64 140,-68c5,-5 -43,-122 -106,-262l-115,-254l-2017,-3c-1613,-2 -2016,0 -2012,10c3,7 71,175 151,373l146,360l-24,55c-87,193 -48,400 103,551c80,80 166,124 276,141c96,15 137,8 435,-70c336,-89 310,-84 319,-59c21,58 53,209 45,216c-5,5 -145,42 -311,85c-291,73 -307,76 -415,75c-77,0 -136,-6 -183,-19zM8262,5345c4,-4 -1104,-2511 -1114,-2520c-2,-2 -55,0 -118,2l-115,6l-65,209c-36,116 -66,216 -68,224c-3,11 16,14 93,14h96l-3,123l-3,122h-310h-310l-3,-122l-3,-123h89h89l80,-262c71,-230 79,-264 65,-273c-8,-5 -44,-31 -78,-57l-63,-47l-1223,1066c-673,585 -1232,1073 -1242,1084c-20,18 -19,22 88,289l108,270h2002c1102,0 2005,-2 2008,-5zM8793,4806l265,-459l-77,-55c-381,-272 -664,-635 -835,-1070c-93,-237 -156,-560 -156,-802c0,-64 -4,-92 -12,-94c-7,-3 -79,-7 -159,-10l-146,-7l-26,71c-44,119 -136,240 -248,325l-26,20l570,1283c352,791 573,1278 578,1270c4,-7 127,-220 272,-472zM2620,4236c206,-28 371,-77 556,-165c128,-62 234,-125 234,-140c0,-5 -99,-255 -221,-557c-144,-357 -234,-567 -259,-603c-108,-160 -281,-256 -480,-268c-107,-6 -142,-20 -170,-66c-24,-39 -25,-68 -4,-113c25,-51 62,-66 164,-65c309,2 592,175 739,451c22,41 128,293 236,560c109,267 201,489 206,495c19,20 209,-190 314,-345c76,-114 177,-321 220,-452c212,-653 54,-1362 -414,-1860c-470,-502 -1192,-705 -1851,-521c-319,88 -579,242 -820,483c-194,194 -319,380 -415,620c-97,240 -130,419 -129,700c0,279 31,445 131,695c110,275 316,556 548,745c270,220 605,364 955,409c105,14 347,12 460,-3zM10628,4226c412,-77 745,-255 1028,-548c655,-678 700,-1732 106,-2469c-84,-104 -250,-261 -358,-337c-309,-220 -645,-334 -1024,-349c-798,-31 -1531,461 -1814,1220c-33,87 -74,241 -91,337l-6,36l343,22c189,12 555,36 815,53l472,31l32,-26c119,-101 267,-99 369,4c134,133 93,351 -80,429c-25,11 -56,21 -70,21c-23,0 -65,69 -430,702c-223,385 -406,704 -408,708c-3,8 80,47 179,84c85,32 252,73 369,91c123,18 450,14 568,-9zM9579,3447c157,-270 338,-585 403,-698l119,-206l-17,-36c-15,-31 -23,-37 -58,-41c-23,-3 -354,-26 -736,-51c-382,-25 -728,-48 -767,-52l-73,-6v59c0,33 7,115 15,184c51,435 246,828 562,1132c82,78 245,208 261,208c4,0 135,-222 291,-493z"></path></g></g></g></svg>